<svg xmlns="http://www.w3.org/2000/svg" width="1400" height="900" viewBox="0 0 1400 900">
<defs>
<style>
.title{font:700 42px Arial;fill:#0b1f3a}
.subtitle{font:400 20px Arial;fill:#41536b}
.label{font:700 21px Arial;fill:#0b1f3a}
.small{font:400 16px Arial;fill:#25364d}
.box{stroke:#9fb3c8;stroke-width:2}
.arrow{stroke:#334e68;stroke-width:3;fill:none;marker-end:url(#a)}
</style>
<marker id="a" markerWidth="12" markerHeight="12" refX="10" refY="6" orient="auto">
<path d="M0,0 L12,6 L0,12 z" fill="#334e68"/>
</marker>
</defs>
<rect width="100%" height="100%" fill="#fff"/>
<text x="70" y="70" class="title">Customer Journey</text>
<text x="70" y="105" class="subtitle">Automated storage and collection workflow</text>
<circle cx="83" cy="252" r="25" fill="#2563eb"/><text x="83" y="259" text-anchor="middle" font-family="Arial" font-size="19" font-weight="700" fill="#fff">1</text><rect x="117" y="190" width="180" height="125" rx="18" fill="#dbeafe" class="box"/><text x="207.0" y="230" text-anchor="middle" class="label">Choose Locker</text><circle cx="351" cy="252" r="25" fill="#2563eb"/><text x="351" y="259" text-anchor="middle" font-family="Arial" font-size="19" font-weight="700" fill="#fff">2</text><rect x="385" y="190" width="180" height="125" rx="18" fill="#e8f5e9" class="box"/><text x="475.0" y="230" text-anchor="middle" class="label">Register Fingerprint</text><circle cx="619" cy="252" r="25" fill="#2563eb"/><text x="619" y="259" text-anchor="middle" font-family="Arial" font-size="19" font-weight="700" fill="#fff">3</text><rect x="653" y="190" width="180" height="125" rx="18" fill="#fff3e0" class="box"/><text x="743.0" y="230" text-anchor="middle" class="label">Store Parcel</text><circle cx="887" cy="252" r="25" fill="#2563eb"/><text x="887" y="259" text-anchor="middle" font-family="Arial" font-size="19" font-weight="700" fill="#fff">4</text><rect x="921" y="190" width="180" height="125" rx="18" fill="#f3e8ff" class="box"/><text x="1011.0" y="230" text-anchor="middle" class="label">Receive RFID Tag</text><circle cx="1155" cy="252" r="25" fill="#2563eb"/><text x="1155" y="259" text-anchor="middle" font-family="Arial" font-size="19" font-weight="700" fill="#fff">5</text><rect x="1189" y="190" width="180" height="125" rx="18" fill="#fef3c7" class="box"/><text x="1279.0" y="230" text-anchor="middle" class="label">Shopping Session</text><circle cx="83" cy="552" r="25" fill="#2563eb"/><text x="83" y="559" text-anchor="middle" font-family="Arial" font-size="19" font-weight="700" fill="#fff">6</text><rect x="117" y="490" width="180" height="125" rx="18" fill="#dbeafe" class="box"/><text x="207.0" y="530" text-anchor="middle" class="label">Return</text><circle cx="351" cy="552" r="25" fill="#2563eb"/><text x="351" y="559" text-anchor="middle" font-family="Arial" font-size="19" font-weight="700" fill="#fff">7</text><rect x="385" y="490" width="180" height="125" rx="18" fill="#e8f5e9" class="box"/><text x="475.0" y="530" text-anchor="middle" class="label">Verify Fingerprint</text><circle cx="619" cy="552" r="25" fill="#2563eb"/><text x="619" y="559" text-anchor="middle" font-family="Arial" font-size="19" font-weight="700" fill="#fff">8</text><rect x="653" y="490" width="180" height="125" rx="18" fill="#fff3e0" class="box"/><text x="743.0" y="530" text-anchor="middle" class="label">Collect Parcel</text><circle cx="887" cy="552" r="25" fill="#2563eb"/><text x="887" y="559" text-anchor="middle" font-family="Arial" font-size="19" font-weight="700" fill="#fff">9</text><rect x="921" y="490" width="180" height="125" rx="18" fill="#f3e8ff" class="box"/><text x="1011.0" y="530" text-anchor="middle" class="label">Return RFID</text><circle cx="1155" cy="552" r="25" fill="#2563eb"/><text x="1155" y="559" text-anchor="middle" font-family="Arial" font-size="19" font-weight="700" fill="#fff">10</text><rect x="1189" y="490" width="180" height="125" rx="18" fill="#fef3c7" class="box"/><text x="1279.0" y="530" text-anchor="middle" class="label">Session Ends</text><path d="M297,252 L385,252" class="arrow"/><path d="M565,252 L653,252" class="arrow"/><path d="M833,252 L921,252" class="arrow"/><path d="M1101,252 L1189,252" class="arrow"/><path d="M1279,315 L1279,490" class="arrow"/><path d="M1189,552 L1101,552" class="arrow"/><path d="M921,552 L833,552" class="arrow"/><path d="M653,552 L565,552" class="arrow"/><path d="M385,552 L297,552" class="arrow"/></svg>