<svg xmlns="http://www.w3.org/2000/svg" width="1920" height="1080" viewBox="0 0 1920 1080">
<defs>
  <style>
    .title { font: 700 52px Arial, sans-serif; fill: #102A43; }
    .subtitle { font: 400 24px Arial, sans-serif; fill: #486581; }
    .box-title { font: 700 26px Arial, sans-serif; fill: #102A43; }
    .box-body { font: 400 20px Arial, sans-serif; fill: #486581; }
    .small { font: 400 18px Arial, sans-serif; fill: #486581; }
    .section { font: 700 22px Arial, sans-serif; fill: #102A43; letter-spacing: 1px; }
    .arrow { stroke: #5B6B7A; stroke-width: 4; fill: none; marker-end: url(#arrowhead); }
    .connector { stroke: #5B6B7A; stroke-width: 4; fill: none; }
  </style>
  <marker id="arrowhead" markerWidth="14" markerHeight="14" refX="12" refY="7" orient="auto">
    <path d="M0,0 L14,7 L0,14 z" fill="#5B6B7A"/>
  </marker>
</defs>
<rect width="100%" height="100%" fill="#FFFFFF"/>
<text x="90" y="90" class="title">System Architecture</text>
<text x="90" y="132" class="subtitle">Layered embedded IoT architecture for the Smart Parcel Counter Management System</text>
<text x="120" y="220" class="section">USER INTERACTION</text><text x="620" y="220" class="section">EMBEDDED CONTROL</text><text x="1180" y="220" class="section">CLOUD &amp; MONITORING</text><rect x="100" y="280" width="340" height="170" rx="18" fill="#ECEFF4" stroke="#B8C7D9" stroke-width="2"/><text x="270.0" y="325" text-anchor="middle" class="box-title">Customer</text><text x="270.0" y="360" text-anchor="middle" class="box-body">Selects locker</text><text x="270.0" y="388" text-anchor="middle" class="box-body">Registers fingerprint</text><text x="270.0" y="416" text-anchor="middle" class="box-body">Collects parcel</text><rect x="540" y="250" width="420" height="230" rx="18" fill="#4F8EF7" stroke="#B8C7D9" stroke-width="2"/><text x="750.0" y="295" text-anchor="middle" class="box-title">Arduino Mega 2560</text><text x="750.0" y="330" text-anchor="middle" class="box-body">Main controller</text><text x="750.0" y="358" text-anchor="middle" class="box-body">Coordinates workflow</text><text x="750.0" y="386" text-anchor="middle" class="box-body">Controls locker hardware</text><rect x="1160" y="260" width="300" height="180" rx="18" fill="#F6A54C" stroke="#B8C7D9" stroke-width="2"/><text x="1310.0" y="305" text-anchor="middle" class="box-title">ESP8266</text><text x="1310.0" y="340" text-anchor="middle" class="box-body">Serial communication</text><text x="1310.0" y="368" text-anchor="middle" class="box-body">Wi-Fi connectivity</text><rect x="1540" y="260" width="280" height="180" rx="18" fill="#B89CFF" stroke="#B8C7D9" stroke-width="2"/><text x="1680.0" y="305" text-anchor="middle" class="box-title">Firebase</text><text x="1680.0" y="340" text-anchor="middle" class="box-body">Realtime database</text><text x="1680.0" y="368" text-anchor="middle" class="box-body">Locker status</text><rect x="1540" y="640" width="280" height="180" rx="18" fill="#4F8EF7" stroke="#B8C7D9" stroke-width="2"/><text x="1680.0" y="685" text-anchor="middle" class="box-title">Web Dashboard</text><text x="1680.0" y="720" text-anchor="middle" class="box-body">Administrator view</text><text x="1680.0" y="748" text-anchor="middle" class="box-body">Live monitoring</text><rect x="140" y="630" width="280" height="150" rx="18" fill="#8BCF7A" stroke="#B8C7D9" stroke-width="2"/><text x="280.0" y="675" text-anchor="middle" class="box-title">Fingerprint Sensor</text><text x="280.0" y="710" text-anchor="middle" class="box-body">Enrolment</text><text x="280.0" y="738" text-anchor="middle" class="box-body">Verification</text><rect x="470" y="630" width="240" height="150" rx="18" fill="#8BCF7A" stroke="#B8C7D9" stroke-width="2"/><text x="590.0" y="675" text-anchor="middle" class="box-title">RFID Reader</text><text x="590.0" y="710" text-anchor="middle" class="box-body">Session tracking</text><rect x="760" y="630" width="240" height="150" rx="18" fill="#FFD966" stroke="#B8C7D9" stroke-width="2"/><text x="880.0" y="675" text-anchor="middle" class="box-title">LCD &amp;amp; Keypad</text><text x="880.0" y="710" text-anchor="middle" class="box-body">User guidance</text><text x="880.0" y="738" text-anchor="middle" class="box-body">Locker selection</text><rect x="1050" y="630" width="240" height="150" rx="18" fill="#FFD966" stroke="#B8C7D9" stroke-width="2"/><text x="1170.0" y="675" text-anchor="middle" class="box-title">Relay &amp;amp; Lock</text><text x="1170.0" y="710" text-anchor="middle" class="box-body">Electronic access</text><rect x="1340" y="630" width="160" height="150" rx="18" fill="#FFD966" stroke="#B8C7D9" stroke-width="2"/><text x="1420.0" y="675" text-anchor="middle" class="box-title">LEDs / Buzzer</text><text x="1420.0" y="710" text-anchor="middle" class="box-body">Feedback</text><path d="M440,365 L540,365" class="arrow"/><path d="M960,365 L1160,350" class="arrow"/><path d="M1460,350 L1540,350" class="arrow"/><path d="M1680,440 L1680,640" class="arrow"/><path d="M750,480 L750,560 L220,560 L220,630" class="connector"/><path d="M750,560 L590,560 L590,630" class="connector"/><path d="M750,560 L880,560 L880,630" class="connector"/><path d="M750,560 L1170,560 L1170,630" class="connector"/><path d="M750,560 L1420,560 L1420,630" class="connector"/><path d="M220,610 L220,630" class="arrow"/><path d="M590,610 L590,630" class="arrow"/><path d="M880,610 L880,630" class="arrow"/><path d="M1170,610 L1170,630" class="arrow"/><path d="M1420,610 L1420,630" class="arrow"/><text x="1830" y="1035" text-anchor="end" class="small">Diagram 1 of 6</text></svg>